<svg width="25" height="17" viewBox="0 0 25 17" fill="none" xmlns="http://www.w3.org/2000/svg">
<mask id="mask0_279_228" style="mask-type:alpha" maskUnits="userSpaceOnUse" x="0" y="0" width="25" height="17">
<rect width="25" height="16.0714" rx="3" fill="#D9D9D9"/>
</mask>
<g mask="url(#mask0_279_228)">
<path d="M0 0H25V16.0714H0V0Z" fill="white"/>
<path d="M0 0H25V1.23629H0V0ZM0 2.47257H25V3.70886H0V2.47257ZM0 4.94505H25V6.18133H0V4.94505ZM0 7.41762H25V8.65391H0V7.41762ZM0 9.8901H25V11.1264H0V9.8901ZM0 12.3627H25V13.599H0V12.3627ZM0 14.8351H25V16.0714H0V14.8351Z" fill="#B22234"/>
<path d="M0 0H10V8.65381H0V0Z" fill="#3C3B6E"/>
<path d="M0.469971 0.702595L0.708221 0.914004L0.617221 1.2561L0.855387 1.0447L1.09364 1.2561L1.00264 0.914004L1.2408 0.702595H0.946387L0.855387 0.360596L0.764387 0.702595H0.469971ZM2.12789 0.702595L2.36605 0.914004L2.27505 1.2561L2.5133 1.0447L2.75155 1.2561L2.66055 0.914004L2.89872 0.702595H2.6043L2.5133 0.360596L2.4223 0.702595H2.12789ZM3.7858 0.702595L4.02397 0.914004L3.93297 1.2561L4.17122 1.0447L4.40939 1.2561L4.31839 0.914004L4.55664 0.702595H4.26222L4.17122 0.360596L4.08022 0.702595H3.7858ZM5.44372 0.702595L5.68189 0.914004L5.59089 1.2561L5.82914 1.0447L6.0673 1.2561L5.9763 0.914004L6.21455 0.702595H5.92005L5.82914 0.360596L5.73814 0.702595H5.44372ZM7.10155 0.702595L7.3398 0.914004L7.2488 1.2561L7.48697 1.0447L7.72522 1.2561L7.63422 0.914004L7.87239 0.702595H7.57797L7.48697 0.360596L7.39597 0.702595H7.10155ZM8.75947 0.702595L8.99764 0.914004L8.90664 1.2561L9.14489 1.0447L9.38305 1.2561L9.29205 0.914004L9.5303 0.702595H9.23589L9.14489 0.360596L9.05389 0.702595H8.75947ZM1.29889 1.57052L1.53714 1.78193L1.44614 2.12393L1.68439 1.91252L1.92255 2.12393L1.83155 1.78193L2.0698 1.57052H1.7753L1.68439 1.22842L1.59339 1.57052H1.29889ZM2.9568 1.57052L3.19505 1.78193L3.10405 2.12393L3.34222 1.91252L3.58047 2.12393L3.48947 1.78193L3.72764 1.57052H3.43322L3.34222 1.22842L3.25122 1.57052H2.9568ZM4.61472 1.57052L4.85297 1.78193L4.76197 2.12393L5.00014 1.91252L5.23839 2.12393L5.14739 1.78193L5.38555 1.57052H5.09114L5.00014 1.22842L4.90914 1.57052H4.61472ZM6.27264 1.57052L6.5108 1.78193L6.4198 2.12393L6.65805 1.91252L6.89622 2.12393L6.80522 1.78193L7.04347 1.57052H6.74905L6.65805 1.22842L6.56705 1.57052H6.27264ZM7.93047 1.57052L8.16872 1.78193L8.07772 2.12393L8.31589 1.91252L8.55414 2.12393L8.46314 1.78193L8.7013 1.57052H8.40689L8.31589 1.22842L8.22497 1.57052H7.93047ZM0.469971 2.43834L0.708221 2.64975L0.617221 2.99185L0.855387 2.78044L1.09364 2.99185L1.00264 2.64975L1.2408 2.43834H0.946387L0.855387 2.09634L0.764387 2.43834H0.469971ZM2.12789 2.43834L2.36605 2.64975L2.27505 2.99185L2.5133 2.78044L2.75155 2.99185L2.66055 2.64975L2.89872 2.43834H2.6043L2.5133 2.09634L2.4223 2.43834H2.12789ZM3.7858 2.43834L4.02397 2.64975L3.93297 2.99185L4.17122 2.78044L4.40939 2.99185L4.31839 2.64975L4.55664 2.43834H4.26222L4.17122 2.09634L4.08022 2.43834H3.7858ZM5.44372 2.43834L5.68189 2.64975L5.59089 2.99185L5.82914 2.78044L6.0673 2.99185L5.9763 2.64975L6.21455 2.43834H5.92005L5.82914 2.09634L5.73814 2.43834H5.44372ZM7.10155 2.43834L7.3398 2.64975L7.2488 2.99185L7.48697 2.78044L7.72522 2.99185L7.63422 2.64975L7.87239 2.43834H7.57797L7.48697 2.09634L7.39597 2.43834H7.10155ZM8.75947 2.43834L8.99764 2.64975L8.90664 2.99185L9.14489 2.78044L9.38305 2.99185L9.29205 2.64975L9.5303 2.43834H9.23589L9.14489 2.09634L9.05389 2.43834H8.75947ZM1.31939 3.30912L1.55755 3.52053L1.46664 3.86253L1.7048 3.65112L1.94305 3.86253L1.85205 3.52043L2.09022 3.30912H1.7958L1.7048 2.96702L1.6138 3.30912H1.31939ZM2.9773 3.30912L3.21547 3.52053L3.12447 3.86253L3.36272 3.65112L3.60089 3.86253L3.50989 3.52043L3.74814 3.30912H3.45372L3.36272 2.96702L3.27172 3.30912H2.9773ZM4.63522 3.30912L4.87339 3.52053L4.78239 3.86253L5.02064 3.65112L5.2588 3.86253L5.1678 3.52043L5.40605 3.30912H5.11155L5.02064 2.96702L4.92964 3.30912H4.63522ZM6.29305 3.30912L6.5313 3.52053L6.4403 3.86253L6.67847 3.65112L6.91672 3.86253L6.82572 3.52043L7.06389 3.30912H6.76947L6.67847 2.96702L6.58747 3.30912H6.29305ZM7.95097 3.30912L8.18914 3.52053L8.09814 3.86253L8.33639 3.65112L8.57455 3.86253L8.48355 3.52043L8.7218 3.30912H8.42739L8.33639 2.96702L8.24539 3.30912H7.95097ZM0.495137 4.16972L0.733387 4.38102L0.642387 4.72312L0.880554 4.51171L1.1188 4.72312L1.0278 4.38102L1.26597 4.16972H0.971554L0.880554 3.82761L0.789554 4.16972H0.495137ZM2.15305 4.16972L2.39122 4.38102L2.30022 4.72312L2.53847 4.51171L2.77664 4.72312L2.68572 4.38102L2.92389 4.16972H2.62947L2.53847 3.82761L2.44747 4.16972H2.15305ZM3.81097 4.16972L4.04914 4.38102L3.95814 4.72312L4.19639 4.51171L4.43455 4.72312L4.34355 4.38102L4.5818 4.16972H4.28739L4.19639 3.82761L4.10539 4.16972H3.81097ZM5.4688 4.16972L5.70705 4.38102L5.61605 4.72312L5.85422 4.51171L6.09247 4.72312L6.00147 4.38102L6.23972 4.16972H5.94522L5.85422 3.82761L5.7633 4.16972H5.4688ZM7.12672 4.16972L7.36489 4.38102L7.27397 4.72312L7.51214 4.51171L7.75039 4.72312L7.65939 4.38102L7.89755 4.16972H7.60314L7.51214 3.82761L7.42114 4.16972H7.12672ZM8.78464 4.16972L9.0228 4.38102L8.9318 4.72312L9.17005 4.51171L9.40822 4.72312L9.31722 4.38102L9.55547 4.16972H9.26105L9.17005 3.82761L9.07905 4.16972H8.78464ZM0.510721 5.87788L0.748887 6.08929L0.657887 6.43139L0.896137 6.21998L1.1343 6.43139L1.0433 6.08929L1.28155 5.87788H0.987137L0.896137 5.53588L0.805137 5.87788H0.510721ZM2.16855 5.87788L2.4068 6.08929L2.3158 6.43139L2.55397 6.21998L2.79222 6.43139L2.70122 6.08929L2.93939 5.87788H2.64497L2.55397 5.53588L2.46297 5.87788H2.16855ZM3.82647 5.87788L4.06464 6.08929L3.97372 6.43139L4.21189 6.21998L4.45014 6.43139L4.35914 6.08929L4.5973 5.87788H4.30289L4.21189 5.53588L4.12089 5.87788H3.82647ZM5.48439 5.87788L5.72255 6.08929L5.63155 6.43139L5.8698 6.21998L6.10797 6.43139L6.01705 6.08929L6.25522 5.87788H5.9608L5.8698 5.53588L5.7788 5.87788H5.48439ZM7.14222 5.87788L7.38047 6.08929L7.28947 6.43139L7.52764 6.21998L7.76589 6.43139L7.67489 6.08929L7.91314 5.87788H7.61864L7.52764 5.53588L7.43672 5.87788H7.14222ZM8.80014 5.87788L9.0383 6.08929L8.94739 6.43139L9.18555 6.21998L9.4238 6.43139L9.3328 6.08929L9.57097 5.87788H9.27655L9.18555 5.53588L9.09455 5.87788H8.80014ZM0.490471 7.6062L0.728637 7.81761L0.637637 8.15971L0.875887 7.9483L1.11405 8.15971L1.02305 7.81761L1.2613 7.6062H0.966804L0.875887 7.2642L0.784887 7.6062H0.490471ZM2.1483 7.6062L2.38655 7.81761L2.29555 8.15971L2.53372 7.9483L2.77197 8.15971L2.68097 7.81761L2.91914 7.6062H2.62472L2.53372 7.2642L2.44272 7.6062H2.1483ZM3.80622 7.6062L4.04439 7.81761L3.95347 8.15971L4.19164 7.9483L4.42989 8.15971L4.33889 7.81761L4.57705 7.6062H4.28264L4.19164 7.2642L4.10064 7.6062H3.80622ZM5.46414 7.6062L5.7023 7.81761L5.6113 8.15971L5.84955 7.9483L6.08772 8.15971L5.9968 7.81761L6.23497 7.6062H5.94055L5.84955 7.2642L5.75855 7.6062H5.46414ZM7.12197 7.6062L7.36022 7.81761L7.26922 8.15971L7.50739 7.9483L7.74564 8.15971L7.65464 7.81761L7.89289 7.6062H7.59839L7.50739 7.2642L7.41647 7.6062H7.12197ZM8.77989 7.6062L9.01805 7.81761L8.92714 8.15971L9.1653 7.9483L9.40355 8.15971L9.31255 7.81761L9.55072 7.6062H9.2563L9.1653 7.2642L9.0743 7.6062H8.77989ZM1.3243 5.01525L1.56247 5.22666L1.47155 5.56866L1.70972 5.35725L1.94797 5.56866L1.85697 5.22666L2.09514 5.01525H1.80072L1.70972 4.67315L1.61872 5.01525H1.3243ZM2.98222 5.01525L3.22039 5.22666L3.12939 5.56866L3.36764 5.35725L3.6058 5.56866L3.51489 5.22666L3.75305 5.01525H3.45864L3.36764 4.67315L3.27664 5.01525H2.98222ZM4.64014 5.01525L4.8783 5.22666L4.7873 5.56866L5.02555 5.35725L5.26372 5.56866L5.17272 5.22666L5.41097 5.01525H5.11655L5.02555 4.67315L4.93455 5.01525H4.64014ZM6.29797 5.01525L6.53622 5.22666L6.44522 5.56866L6.68339 5.35725L6.92164 5.56866L6.83064 5.22666L7.0688 5.01525H6.77439L6.68339 4.67315L6.59239 5.01525H6.29797ZM7.95589 5.01525L8.19405 5.22666L8.10305 5.56866L8.3413 5.35725L8.57947 5.56866L8.48855 5.22666L8.72672 5.01525H8.4323L8.3413 4.67315L8.2503 5.01525H7.95589ZM1.31939 6.74082L1.55764 6.95223L1.46664 7.29433L1.7048 7.08292L1.94305 7.29433L1.85205 6.95223L2.09022 6.74082H1.7958L1.7048 6.39882L1.6138 6.74082H1.31939ZM2.9773 6.74082L3.21547 6.95223L3.12447 7.29433L3.36272 7.08292L3.60097 7.29433L3.50997 6.95223L3.74814 6.74082H3.45372L3.36272 6.39882L3.27172 6.74082H2.9773ZM4.63522 6.74082L4.87339 6.95223L4.78239 7.29433L5.02064 7.08292L5.2588 7.29433L5.1678 6.95223L5.40605 6.74082H5.11164L5.02064 6.39882L4.92964 6.74082H4.63522ZM6.29305 6.74082L6.5313 6.95223L6.4403 7.29433L6.67847 7.08292L6.91672 7.29433L6.82572 6.95223L7.06389 6.74082H6.76947L6.67847 6.39882L6.58747 6.74082H6.29305ZM7.95097 6.74082L8.18914 6.95223L8.09814 7.29433L8.33639 7.08292L8.57455 7.29433L8.48364 6.95223L8.7218 6.74082H8.42739L8.33639 6.39882L8.24539 6.74082H7.95097Z" fill="white"/>
</g>
</svg>
