<svg width="22" height="23" viewBox="0 0 22 23" fill="none" xmlns="http://www.w3.org/2000/svg">
<path d="M3.97247 0.29248C1.7719 0.29248 0 2.0974 0 4.33897V18.4072C0 20.6487 1.7719 22.4537 3.97247 22.4537H11.4578V13.79H9.20881V10.6708H11.4578V8.00596C11.4578 5.91228 12.7866 3.98994 15.8477 3.98994C17.0871 3.98994 18.0036 4.11114 18.0036 4.11114L17.9315 7.02395C17.9315 7.02395 16.9968 7.01496 15.9769 7.01496C14.873 7.01496 14.696 7.53304 14.696 8.39311V10.6709H18.0192L17.8744 13.79H14.696V22.4537H17.7833C19.9838 22.4537 21.7557 20.6488 21.7557 18.4072V4.339C21.7557 2.09742 19.9838 0.292503 17.7833 0.292503L3.97247 0.29248Z" fill="#270641"/>
</svg>
