<svg width="273" height="201" viewBox="0 0 273 201" fill="none" xmlns="http://www.w3.org/2000/svg">
<path d="M265.728 191.733V84.66H272.471V76.4077H124.475C124.293 76.4077 124.151 76.5547 124.151 76.7311V82.9203H195.388V191.728H265.728V191.733Z" fill="#270641"/>
<path d="M196.505 29.6923C196.505 28.6926 197.319 27.8792 198.323 27.8792C199.318 27.8792 200.132 28.6926 200.132 29.6923V52.1458C200.132 53.1455 199.318 53.9639 198.323 53.9639C197.319 53.9639 196.505 53.1455 196.505 52.1458V29.6923ZM151.02 53.6062H148.854V50.8521H151.02V53.6062ZM159.287 43.9671C154.553 44.2709 153.701 47.6522 153.554 49.0978C153.5 49.6123 153.068 49.9995 152.559 49.9995H147.521C146.967 49.9995 146.517 49.5535 146.517 48.9998V30.0157H153.26L153.274 30.2117C153.343 30.937 153.627 32.3189 154.784 33.4117C156.268 34.8279 158.665 35.3179 161.904 34.8818C169.201 33.8968 178.678 32.2699 181.407 31.7946L181.657 31.7554V43.9671H159.287V43.9671ZM194.531 64.7741C197.618 64.7741 200.132 67.288 200.132 70.3801V74.325C200.132 75.2462 199.387 75.996 198.466 75.996H144.493C143.572 75.996 142.822 75.2462 142.822 74.325V70.3801C142.822 67.288 145.341 64.7741 148.433 64.7741H194.531ZM193.595 44.4228V37.6113H195.658V44.4228H193.595Z" fill="#270641"/>
<path d="M198.323 54.8118C199.789 54.8118 200.979 53.6161 200.979 52.146V29.6924C200.979 28.2223 199.789 27.0266 198.323 27.0266C196.853 27.0266 195.658 28.2223 195.658 29.6924V36.7637H193.595V30.8293H187.998V25.1792H187.151V30.8293H181.447C181.358 30.844 169.22 33.0394 161.796 34.044C158.831 34.4409 156.67 34.0293 155.377 32.8091C153.985 31.5007 154.102 29.6483 154.107 29.6287L154.142 29.1681H150.359V26.9335H149.511V29.1681H145.669V49C145.669 50.0192 146.502 50.8523 147.521 50.8523H148.006V54.4541H149.511V59.4133H150.359V54.4541H151.868V50.8523H152.559C153.509 50.8523 154.298 50.1319 154.396 49.1813C154.588 47.324 155.592 45.0551 159.312 44.815H181.657V53.8758C181.657 55.7674 180.123 57.3061 178.242 57.3061C175.885 57.3061 173.973 59.2172 173.973 61.5694V63.9216H148.433C144.87 63.9216 141.974 66.8226 141.974 70.3803V74.3251C141.974 75.7168 143.106 76.8488 144.493 76.8488H198.466C199.852 76.8488 200.979 75.7168 200.979 74.3251V70.3803C200.979 66.8226 198.088 63.9216 194.531 63.9216H193.595V45.2708H195.658V52.146C195.658 53.6161 196.853 54.8118 198.323 54.8118ZM192.747 63.9216H174.821V61.5694C174.821 59.6877 176.35 58.1539 178.242 58.1539C180.594 58.1539 182.505 56.2329 182.505 53.8758V31.6771H192.747V63.9216Z" fill="#270641"/>
<path d="M192.747 31.6772V63.9218H174.821V61.5696C174.821 59.6878 176.35 58.154 178.242 58.154C180.594 58.154 182.505 56.2331 182.505 53.876V31.6772H192.747V31.6772Z" fill="#392656"/>
<path d="M194.531 64.7742H148.433C145.341 64.7742 142.822 67.2881 142.822 70.3802V74.325C142.822 75.2463 143.572 75.996 144.493 75.996H198.466C199.387 75.996 200.132 75.2463 200.132 74.325V70.3802C200.132 67.2881 197.618 64.7742 194.531 64.7742ZM175.096 68.0133H192.958V68.8611H175.096V68.0133ZM195.868 72.85H146.306V72.0022H195.868V72.85Z" fill="#270641"/>
<path d="M200.132 29.6923V52.1458C200.132 53.1455 199.318 53.9639 198.324 53.9639C197.319 53.9639 196.505 53.1455 196.505 52.1458V29.6923C196.505 28.6926 197.319 27.8792 198.324 27.8792C199.318 27.8792 200.132 28.6926 200.132 29.6923Z" fill="#270641"/>
<path d="M181.657 31.7557V43.9675H159.287C154.553 44.2713 153.701 47.6526 153.554 49.0982C153.5 49.6127 153.068 49.9999 152.559 49.9999H147.521C146.967 49.9999 146.517 49.5539 146.517 49.0002V30.0161H153.26L153.274 30.2121C153.343 30.9374 153.627 32.3193 154.784 33.4121C156.268 34.8283 158.665 35.3183 161.904 34.8822C169.2 33.8972 178.678 32.2703 181.407 31.795L181.657 31.7557Z" fill="#270641"/>
<path d="M195.868 72.0024H146.306V72.8502H195.868V72.0024Z" fill="#625275"/>
<path d="M192.958 68.0134H175.096V68.8612H192.958V68.0134Z" fill="#625275"/>
<path d="M72.5355 36.3666C72.5355 36.3666 77.627 41.9089 79.5774 42.5117C81.5277 43.1144 83.0224 36.6704 83.3213 36.3666C83.6202 36.0628 84.6346 36.6655 85.399 35.7688C86.1635 34.872 86.6143 30.0206 86.6143 30.0206C86.6143 30.0206 90.6572 23.9343 91.2599 20.1904C91.8627 16.4466 88.8342 4.64154 77.3281 3.11262C72.1435 2.42656 68.3163 5.00416 65.8955 7.51806C63.4159 10.0908 62.0291 13.5798 62.2595 17.1473C62.3624 18.7252 62.7789 20.2493 63.8423 21.0921C66.6894 23.3414 64.6655 30.6038 64.6655 30.6038C64.6655 30.6038 62.6417 34.2741 61.1471 37.6162C59.6475 40.9583 56.2761 40.9387 56.2761 40.9387C48.4845 38.8413 41.82 50.4503 41.82 50.4503L29.9855 68.6552L23.0956 53.072L13.6575 64.7741C13.6575 64.7741 27.5157 84.7628 31.1126 81.6167C34.7095 78.4707 52.2382 59.8198 52.689 60.4912C53.1398 61.1625 55.8351 75.996 53.1398 84.3119C50.4446 92.6279 43.7017 111.053 43.7017 111.053C48.6462 106.785 81.6797 106.785 81.6797 106.785C81.6797 106.785 78.759 98.6945 77.186 91.2803C75.613 83.866 78.3082 78.4707 83.2576 72.8548C88.207 67.239 83.0273 62.2896 83.2527 54.8753C83.4781 47.4611 75.613 46.334 73.8145 44.4277C72.0161 42.5215 73.8145 37.6162 73.8145 37.6162" fill="#270641"/>
<path d="M195.388 82.9253H130.968V191.733H195.388V82.9253Z" fill="#625275"/>
<path d="M48.8226 109.123C48.8226 109.123 46.4214 123.976 48.8226 129.822C51.2238 135.663 56.7318 137.687 65.6064 138.251C74.481 138.814 80.3271 136.227 83.924 135.217C87.5209 134.208 99.2034 133.38 101.227 134.076C103.251 134.766 116.399 138.329 116.399 138.329L123.7 141.397C123.7 141.397 128.121 135.105 127.822 128.362C127.66 124.721 126.175 114.876 128.571 111.058C131.09 107.045 127.371 101.694 128.571 96.6023C129.091 94.3971 128.723 86.8652 125.876 87.1642C123.029 87.4631 106.044 89.5458 93.9649 97.651C81.4493 106.05 79.7342 105.291 79.7342 105.291L73.741 103.943L53.6641 104.992L48.8226 109.123Z" fill="#270641"/>
<path d="M127.89 88.8401C127.89 88.8401 132.413 90.0652 136.059 100.346C138.808 108.094 151.339 132.556 151.339 132.556C151.339 132.556 162.747 154.069 168.48 166.59C170.715 171.47 174.508 175.474 179.276 177.949L183.314 180.041C185.112 180.972 186.646 182.379 187.636 184.148C188.631 185.936 188.885 187.784 185.352 187.465L169.499 184.657C167.226 184.255 164.898 184.157 162.614 184.5C160.047 184.883 157.964 183.422 159.542 179.154C161.228 174.577 162.463 176.459 161.002 170.691C160.816 169.966 148.643 154.285 144.15 146.645C139.656 139.005 131.267 122.672 131.267 122.672L127.66 113.479" fill="#270641"/>
<path d="M115.238 95.3969C115.238 95.3969 122.167 88.1444 122.691 99.0379C123.088 107.251 128.037 134.286 128.037 134.286C128.037 134.286 132.756 158.171 134.638 171.818C135.373 177.14 137.848 182.065 141.7 185.809L144.958 188.975C146.414 190.386 147.477 192.175 147.913 194.154C148.349 196.154 148.06 197.996 144.772 196.673L130.404 189.416C128.346 188.377 126.146 187.612 123.862 187.279C121.294 186.907 119.721 184.907 122.461 181.271C125.396 177.375 126.038 179.532 126.298 173.587C126.332 172.838 119.192 154.314 117.09 145.704C114.988 137.094 111.665 119.036 111.665 119.036L110.862 109.196" fill="#270641"/>
<path d="M90.5397 14.6385C90.5397 14.6385 92.1666 7.97885 83.9242 2.99517C75.6817 -1.98852 67.4442 2.35812 67.4442 2.35812C67.4442 2.35812 64.2981 -1.61119 59.9515 2.99517C55.6049 7.60152 54.5562 12.6979 54.86 17.7894C55.1638 22.8809 54.86 52.9987 54.86 52.9987L59.6526 50.0045L61.9018 33.8235C61.9018 33.8235 62.7496 20.5973 63.7003 22.8858C65.3223 26.8012 68.0469 30.0208 68.0469 30.0208" fill="#270641"/>
<path d="M22.9095 54.5326C22.341 54.0083 21.3365 49.1373 19.9889 47.231C18.6413 45.3199 8.865 46.1088 8.52687 45.9961C8.18875 45.8834 5.46414 49.4656 5.21912 49.8772L4.80748 50.5731C4.67517 50.7985 4.67517 51.0729 4.80748 51.2984L7.19397 55.3069C7.32138 55.5225 7.5566 55.6548 7.80652 55.6548C8.31126 55.6548 8.65428 55.1452 8.46317 54.6747L7.5517 52.4254C7.45859 52.1951 7.49289 51.9354 7.63991 51.7345L9.06102 49.8135C9.21783 49.6028 9.47755 49.495 9.73237 49.5342L10.0166 49.5734C10.634 49.6616 10.8448 50.4457 10.3547 50.8377L8.8895 51.9942C8.66899 52.1706 8.57098 52.4597 8.64448 52.7342L8.77679 53.234C8.8846 53.6309 9.30113 53.8564 9.68826 53.724L13.6527 52.3911L15.7108 50.8181L16.9457 62.9515" fill="#270641"/>
<path d="M79.4597 77.9172L96.66 68.8613L97.8557 83.8614L76.1323 85.5079L69.3894 73.6735L79.4597 77.9172Z" fill="#270641"/>
<path d="M114.949 69.1502C110.69 70.0568 94.8619 72.4286 94.8619 72.4286L89.3196 80.2643H96.6603L114.787 73.5214L119.055 75.3198C119.555 75.4766 123.127 75.7216 125.592 75.1973L126.626 74.9768C126.989 74.8984 126.959 74.3789 126.597 74.3348C126.597 74.3348 120.089 73.4038 119.888 73.3744C119.726 73.3499 120.751 72.5658 120.888 72.5021C121.888 72.0317 122.902 71.9925 123.98 72.0072C124.455 72.0121 125.68 71.767 126.102 72.0072C128.224 73.2176 130.929 73.5949 130.929 73.5949C131.272 73.6488 131.453 73.2028 131.164 73.0068C129.419 71.816 126.362 69.6648 126.028 69.6305C123.99 69.4394 119.751 69.1306 117.487 68.9689C116.634 68.9052 115.782 68.9738 114.949 69.1502Z" fill="#270641"/>
<path d="M1 13.2957C1 13.2957 14.9318 27.5509 12.6874 37.6162C10.443 47.6816 3.02386 67.342 10.2176 72.0071C17.4114 76.6723 31.3677 85.7184 47.7594 68.9493C55.7814 60.7411 68.591 64.784 77.8184 68.3465C83.4734 70.5321 88.9471 73.1391 94.5434 75.4619C98.6009 77.1476 103.124 79.0735 107.716 79.1911C112.66 79.3136 116.722 76.9467 120.775 74.3936C124.813 71.8503 128.738 69.0718 132.35 65.9502C134.026 64.5046 137.059 62.3534 137.637 60.0453" stroke="#61358A" stroke-width="2" stroke-miterlimit="10"/>
<path d="M83.6154 145.077H51.2092C49.3029 145.077 47.7544 143.528 47.7544 141.622C47.7544 139.716 49.3029 138.167 51.2092 138.167H83.6154C85.5216 138.167 87.0702 139.716 87.0702 141.622C87.0702 143.528 85.5216 145.077 83.6154 145.077Z" fill="#392656"/>
<path d="M54.9189 199.603L58.8637 144.792H63.0192L57.5161 199.824C57.4475 200.49 56.8888 201 56.2175 201C55.4677 201.005 54.865 200.358 54.9189 199.603Z" fill="#392656"/>
<path d="M77.98 199.603L74.0352 144.792H69.8796L75.3828 199.824C75.4514 200.49 76.01 201 76.6814 201C77.436 201.005 78.0339 200.358 77.98 199.603Z" fill="#392656"/>
</svg>
