<svg width="25" height="17" viewBox="0 0 25 17" fill="none" xmlns="http://www.w3.org/2000/svg">
    <mask id="mask0_279_236" style="mask-type:alpha" maskUnits="userSpaceOnUse" x="0" y="0" width="25" height="17">
        <rect width="25" height="16.0714" rx="3" fill="#D9D9D9" />
    </mask>
    <g mask="url(#mask0_279_236)">
        <path d="M25 0H0V16.0714H25V0Z" fill="#FF9933" />
        <path d="M25 5.35718H0V10.7143H25V5.35718Z" fill="white" />
        <path d="M25 10.7144H0V16.0715H25V10.7144Z" fill="#128807" />
        <path
            d="M12.5001 10.1785C13.7274 10.1785 14.7223 9.21915 14.7223 8.03568C14.7223 6.85221 13.7274 5.89282 12.5001 5.89282C11.2728 5.89282 10.2778 6.85221 10.2778 8.03568C10.2778 9.21915 11.2728 10.1785 12.5001 10.1785Z"
            fill="#000088" />
        <path
            d="M12.5004 9.91064C13.5742 9.91064 14.4448 9.07118 14.4448 8.03564C14.4448 7.00011 13.5742 6.16064 12.5004 6.16064C11.4265 6.16064 10.5559 7.00011 10.5559 8.03564C10.5559 9.07118 11.4265 9.91064 12.5004 9.91064Z"
            fill="white" />
        <path
            d="M12.5002 8.41064C12.715 8.41064 12.8891 8.24275 12.8891 8.03564C12.8891 7.82854 12.715 7.66064 12.5002 7.66064C12.2854 7.66064 12.1113 7.82854 12.1113 8.03564C12.1113 8.24275 12.2854 8.41064 12.5002 8.41064Z"
            fill="#000088" />
        <path
            d="M14.415 8.37343C14.4682 8.38018 14.5171 8.34405 14.5241 8.29271C14.5311 8.24138 14.4936 8.19429 14.4404 8.18753C14.3871 8.18077 14.3383 8.21691 14.3313 8.26824C14.3243 8.31957 14.3618 8.36667 14.415 8.37343Z"
            fill="#000088" />
        <path d="M12.5 9.91096L12.5667 8.78596L12.5 8.25024L12.4333 8.78596L12.5 9.91096Z" fill="#000088" />
        <path
            d="M14.2591 8.83996C14.3087 8.85978 14.3655 8.83706 14.3861 8.78923C14.4066 8.74139 14.3831 8.68655 14.3335 8.66674C14.2839 8.64692 14.227 8.66964 14.2064 8.71747C14.1859 8.76531 14.2095 8.82015 14.2591 8.83996Z"
            fill="#000088" />
        <path d="M11.9968 9.84684L12.3632 8.77681L12.4426 8.24271L12.2344 8.74353L11.9968 9.84684Z" fill="#000088" />
        <path
            d="M13.9834 9.25148C14.026 9.283 14.087 9.27525 14.1197 9.23417C14.1524 9.1931 14.1444 9.13425 14.1018 9.10273C14.0592 9.07121 13.9982 9.07895 13.9655 9.12003C13.9328 9.16111 13.9408 9.21996 13.9834 9.25148Z"
            fill="#000088" />
        <path d="M11.5279 9.65957L12.169 8.71744L12.389 8.22135L12.0535 8.65315L11.5279 9.65957Z" fill="#000088" />
        <path
            d="M13.6066 9.58037C13.6393 9.62144 13.7003 9.62919 13.7429 9.59767C13.7855 9.56615 13.7935 9.5073 13.7608 9.46622C13.7282 9.42515 13.6671 9.4174 13.6245 9.44892C13.5819 9.48044 13.5739 9.53929 13.6066 9.58037Z"
            fill="#000088" />
        <path d="M11.1248 9.3616L11.9969 8.61157L12.3426 8.1873L11.9026 8.52065L11.1248 9.3616Z" fill="#000088" />
        <path
            d="M13.1539 9.80363C13.1745 9.85147 13.2314 9.87418 13.281 9.85437C13.3306 9.83455 13.3541 9.77971 13.3336 9.73188C13.313 9.68404 13.2562 9.66133 13.2066 9.68114C13.157 9.70095 13.1334 9.7558 13.1539 9.80363Z"
            fill="#000088" />
        <path d="M10.8158 8.97294L11.8595 8.46612L12.3073 8.14259L11.7928 8.35477L10.8158 8.97294Z" fill="#000088" />
        <path
            d="M12.6573 9.90673C12.6643 9.95806 12.7132 9.9942 12.7664 9.98744C12.8196 9.98068 12.8571 9.93359 12.8501 9.88225C12.8431 9.83092 12.7942 9.79479 12.741 9.80154C12.6878 9.8083 12.6503 9.85539 12.6573 9.90673Z"
            fill="#000088" />
        <path d="M10.6215 8.52097L11.7657 8.2919L12.2851 8.09115L11.7312 8.16771L10.6215 8.52097Z" fill="#000088" />
        <path
            d="M12.1498 9.88244C12.1427 9.93377 12.1802 9.98087 12.2335 9.98762C12.2867 9.99438 12.3355 9.95825 12.3425 9.90691C12.3495 9.85558 12.3121 9.80849 12.2588 9.80173C12.2056 9.79497 12.1568 9.83111 12.1498 9.88244Z"
            fill="#000088" />
        <path d="M10.5551 8.03572L11.7218 8.10001L12.2773 8.03572L11.7218 7.97144L10.5551 8.03572Z" fill="#000088" />
        <path
            d="M11.6657 9.73215C11.6452 9.77998 11.6687 9.83482 11.7183 9.85464C11.7679 9.87445 11.8248 9.85173 11.8454 9.8039C11.8659 9.75606 11.8424 9.70122 11.7927 9.68141C11.7431 9.66159 11.6863 9.68431 11.6657 9.73215Z"
            fill="#000088" />
        <path d="M10.6215 7.55024L11.7311 7.90351L12.285 7.98006L11.7656 7.77932L10.6215 7.55024Z" fill="#000088" />
        <path
            d="M11.2392 9.46609C11.2065 9.50717 11.2145 9.56602 11.2571 9.59754C11.2997 9.62906 11.3608 9.62131 11.3935 9.58024C11.4261 9.53916 11.4181 9.48031 11.3755 9.44879C11.3329 9.41727 11.2719 9.42502 11.2392 9.46609Z"
            fill="#000088" />
        <path d="M10.8158 7.09812L11.7928 7.71629L12.3072 7.92848L11.8595 7.60495L10.8158 7.09812Z" fill="#000088" />
        <path
            d="M10.8978 9.10265C10.8552 9.13417 10.8471 9.19302 10.8798 9.2341C10.9125 9.27518 10.9735 9.28293 11.0161 9.25141C11.0587 9.21989 11.0668 9.16104 11.0341 9.11996C11.0014 9.07888 10.9404 9.07113 10.8978 9.10265Z"
            fill="#000088" />
        <path d="M11.1247 6.70978L11.9025 7.55073L12.3425 7.88408L11.9968 7.45982L11.1247 6.70978Z" fill="#000088" />
        <path
            d="M10.6666 8.6666C10.617 8.68642 10.5934 8.74126 10.614 8.78909C10.6345 8.83693 10.6914 8.85965 10.741 8.83983C10.7906 8.82002 10.8142 8.76518 10.7936 8.71734C10.7731 8.66951 10.7162 8.64679 10.6666 8.6666Z"
            fill="#000088" />
        <path d="M11.5284 6.41179L12.054 7.41821L12.3895 7.85001L12.1695 7.35393L11.5284 6.41179Z" fill="#000088" />
        <path
            d="M10.5591 8.18742C10.5059 8.19418 10.4684 8.24128 10.4754 8.29261C10.4824 8.34394 10.5313 8.38008 10.5845 8.37332C10.6378 8.36656 10.6752 8.31947 10.6682 8.26814C10.6612 8.2168 10.6124 8.18067 10.5591 8.18742Z"
            fill="#000088" />
        <path d="M11.9962 6.22452L12.2338 7.32783L12.442 7.82865L12.3626 7.29455L11.9962 6.22452Z" fill="#000088" />
        <path
            d="M10.5845 7.69786C10.5313 7.69111 10.4824 7.72724 10.4754 7.77857C10.4684 7.82991 10.5059 7.877 10.5591 7.88376C10.6124 7.89052 10.6612 7.85438 10.6682 7.80305C10.6752 7.75171 10.6377 7.70462 10.5845 7.69786Z"
            fill="#000088" />
        <path d="M12.4995 6.16033L12.4328 7.28533L12.4995 7.82104L12.5662 7.28533L12.4995 6.16033Z" fill="#000088" />
        <path
            d="M10.7404 7.23133C10.6908 7.21151 10.634 7.23423 10.6134 7.28206C10.5929 7.3299 10.6164 7.38474 10.666 7.40455C10.7156 7.42437 10.7725 7.40165 10.7931 7.35382C10.8136 7.30598 10.7901 7.25114 10.7404 7.23133Z"
            fill="#000088" />
        <path d="M13.0027 6.22445L12.6363 7.29448L12.5569 7.82858L12.7651 7.32775L13.0027 6.22445Z" fill="#000088" />
        <path
            d="M11.0166 6.81981C10.974 6.78829 10.913 6.79604 10.8803 6.83712C10.8476 6.87819 10.8556 6.93704 10.8982 6.96856C10.9408 7.00008 11.0018 6.99234 11.0345 6.95126C11.0672 6.91018 11.0592 6.85133 11.0166 6.81981Z"
            fill="#000088" />
        <path d="M13.4721 6.41196L12.831 7.3541L12.611 7.85018L12.9465 7.41838L13.4721 6.41196Z" fill="#000088" />
        <path
            d="M11.3932 6.49117C11.3605 6.45009 11.2995 6.44234 11.2569 6.47386C11.2143 6.50538 11.2062 6.56423 11.2389 6.60531C11.2716 6.64639 11.3326 6.65414 11.3752 6.62262C11.4178 6.5911 11.4259 6.53225 11.3932 6.49117Z"
            fill="#000088" />
        <path d="M13.8748 6.70993L13.0027 7.45997L12.657 7.88423L13.0969 7.55088L13.8748 6.70993Z" fill="#000088" />
        <path
            d="M11.8461 6.26766C11.8255 6.21982 11.7686 6.19711 11.719 6.21692C11.6694 6.23674 11.6459 6.29158 11.6664 6.33941C11.687 6.38725 11.7438 6.40996 11.7934 6.39015C11.843 6.37033 11.8666 6.31549 11.8461 6.26766Z"
            fill="#000088" />
        <path d="M14.1845 7.09859L13.1408 7.60542L12.693 7.92895L13.2074 7.71676L14.1845 7.09859Z" fill="#000088" />
        <path
            d="M12.3432 6.16505C12.3362 6.11372 12.2873 6.07758 12.2341 6.08434C12.1809 6.0911 12.1434 6.13819 12.1504 6.18952C12.1574 6.24086 12.2062 6.27699 12.2595 6.27023C12.3127 6.26348 12.3502 6.21638 12.3432 6.16505Z"
            fill="#000088" />
        <path d="M14.379 7.55105L13.2348 7.78013L12.7154 7.98087L13.2693 7.90432L14.379 7.55105Z" fill="#000088" />
        <path
            d="M12.8505 6.18934C12.8575 6.138 12.82 6.09091 12.7668 6.08415C12.7136 6.0774 12.6647 6.11353 12.6577 6.16486C12.6507 6.2162 12.6882 6.26329 12.7414 6.27005C12.7946 6.27681 12.8435 6.24067 12.8505 6.18934Z"
            fill="#000088" />
        <path d="M14.4451 8.03606L13.2785 7.97177L12.7229 8.03606L13.2785 8.10034L14.4451 8.03606Z" fill="#000088" />
        <path
            d="M13.3343 6.33988C13.3548 6.29204 13.3313 6.2372 13.2817 6.21739C13.2321 6.19757 13.1752 6.22029 13.1546 6.26812C13.1341 6.31596 13.1576 6.3708 13.2073 6.39061C13.2569 6.41043 13.3137 6.38771 13.3343 6.33988Z"
            fill="#000088" />
        <path d="M14.3785 8.52129L13.2689 8.16803L12.715 8.09147L13.2344 8.29222L14.3785 8.52129Z" fill="#000088" />
        <path
            d="M13.7611 6.60568C13.7937 6.56461 13.7857 6.50576 13.7431 6.47424C13.7005 6.44272 13.6395 6.45046 13.6068 6.49154C13.5741 6.53262 13.5821 6.59147 13.6247 6.62299C13.6673 6.65451 13.7284 6.64676 13.7611 6.60568Z"
            fill="#000088" />
        <path d="M14.1842 8.97366L13.2072 8.35549L12.6928 8.1433L13.1405 8.46683L14.1842 8.97366Z" fill="#000088" />
        <path
            d="M14.1025 6.96912C14.1451 6.9376 14.1531 6.87875 14.1204 6.83768C14.0877 6.7966 14.0267 6.78885 13.9841 6.82037C13.9415 6.85189 13.9335 6.91074 13.9662 6.95182C13.9989 6.9929 14.0599 7.00064 14.1025 6.96912Z"
            fill="#000088" />
        <path d="M13.8755 9.36176L13.0977 8.5208L12.6577 8.18745L13.0034 8.61172L13.8755 9.36176Z" fill="#000088" />
        <path
            d="M14.3339 7.40493C14.3835 7.38511 14.4071 7.33027 14.3865 7.28244C14.366 7.2346 14.3091 7.21189 14.2595 7.2317C14.2099 7.25152 14.1863 7.30636 14.2069 7.35419C14.2274 7.40203 14.2843 7.42474 14.3339 7.40493Z"
            fill="#000088" />
        <path d="M13.4721 9.65974L12.9465 8.65332L12.611 8.22152L12.831 8.7176L13.4721 9.65974Z" fill="#000088" />
        <path
            d="M14.4409 7.88411C14.4941 7.87735 14.5316 7.83026 14.5246 7.77892C14.5176 7.72759 14.4687 7.69145 14.4155 7.69821C14.3622 7.70497 14.3248 7.75206 14.3318 7.8034C14.3388 7.85473 14.3876 7.89087 14.4409 7.88411Z"
            fill="#000088" />
        <path d="M13.0038 9.84725L12.7662 8.74395L12.558 8.24313L12.6374 8.77723L13.0038 9.84725Z" fill="#000088" />
    </g>
</svg>