<svg width="22" height="23" viewBox="0 0 22 23" fill="none" xmlns="http://www.w3.org/2000/svg">
    <path
        d="M21.6858 6.54779C21.6725 5.61679 21.5035 4.69316 21.1799 3.82242C20.6137 2.33551 19.4606 1.15976 18.0009 0.584185C17.157 0.260731 16.2648 0.0873204 15.3616 0.0676426C14.2002 0.0147584 13.8319 0 10.8835 0C7.93517 0 7.55727 8.24688e-08 6.40424 0.0676426C5.50234 0.0873204 4.6101 0.260731 3.76615 0.584185C2.30645 1.15976 1.15221 2.33551 0.587168 3.82242C0.269632 4.68209 0.0981872 5.59096 0.0812841 6.50967C0.0293676 7.69402 0.0136719 8.06913 0.0136719 11.0725C0.0136719 14.0758 0.0136719 14.4595 0.0812841 15.6353C0.0993945 16.5552 0.269632 17.4628 0.587168 18.325C1.15342 19.8106 2.30645 20.9864 3.76736 21.562C4.60768 21.8965 5.49992 22.0859 6.40544 22.1154C7.56813 22.1683 7.93638 22.1843 10.8848 22.1843C13.8331 22.1843 14.211 22.1843 15.3641 22.1154C16.266 22.097 17.1582 21.9235 18.0034 21.6001C19.4631 21.0233 20.6161 19.8475 21.1823 18.3619C21.4999 17.501 21.6701 16.5933 21.6882 15.6721C21.7401 14.489 21.7558 14.1139 21.7558 11.1094C21.7534 8.10603 21.7534 7.72477 21.6858 6.54779V6.54779ZM10.8763 16.752C7.7927 16.752 5.29467 14.2074 5.29467 11.0663C5.29467 7.92524 7.7927 5.38065 10.8763 5.38065C13.9575 5.38065 16.4579 7.92524 16.4579 11.0663C16.4579 14.2074 13.9575 16.752 10.8763 16.752ZM16.6801 6.49614C15.9593 6.49614 15.3786 5.90334 15.3786 5.17035C15.3786 4.43735 15.9593 3.84455 16.6801 3.84455C17.3985 3.84455 17.9804 4.43735 17.9804 5.17035C17.9804 5.90334 17.3985 6.49614 16.6801 6.49614Z"
        fill="#270641" />
    <path
        d="M10.8764 14.7596C12.8789 14.7596 14.5021 13.1061 14.5021 11.0663C14.5021 9.02658 12.8789 7.37305 10.8764 7.37305C8.87402 7.37305 7.25073 9.02658 7.25073 11.0663C7.25073 13.1061 8.87402 14.7596 10.8764 14.7596Z"
        fill="#270641" />
</svg>