<svg width="27" height="25" viewBox="0 0 27 25" fill="none" xmlns="http://www.w3.org/2000/svg">
<path d="M14.6248 6.15976C15.5199 6.15976 16.3783 6.48214 17.0112 7.05597C17.6442 7.6298 17.9998 8.40808 17.9998 9.2196C17.9998 9.4901 18.1183 9.74953 18.3293 9.94081C18.5402 10.1321 18.8264 10.2395 19.1248 10.2395C19.4231 10.2395 19.7093 10.1321 19.9203 9.94081C20.1312 9.74953 20.2498 9.4901 20.2498 9.2196C20.2498 7.86707 19.6571 6.56993 18.6022 5.61355C17.5473 4.65716 16.1166 4.11987 14.6248 4.11987C14.3264 4.11987 14.0402 4.22733 13.8293 4.41861C13.6183 4.60988 13.4998 4.86931 13.4998 5.13982C13.4998 5.41032 13.6183 5.66975 13.8293 5.86103C14.0402 6.0523 14.3264 6.15976 14.6248 6.15976V6.15976Z" fill="#270641"/>
<path d="M14.6248 2.07993C16.7133 2.07993 18.7164 2.83214 20.1932 4.17107C21.6701 5.51001 22.4998 7.326 22.4998 9.21954C22.4998 9.49005 22.6183 9.74948 22.8293 9.94075C23.0403 10.132 23.3264 10.2395 23.6248 10.2395C23.9231 10.2395 24.2093 10.132 24.4203 9.94075C24.6312 9.74948 24.7498 9.49005 24.7498 9.21954C24.7498 6.78499 23.683 4.45014 21.7842 2.72865C19.8854 1.00716 17.3101 0.0400391 14.6248 0.0400391C14.3264 0.0400391 14.0402 0.147497 13.8293 0.338774C13.6183 0.530051 13.4998 0.789478 13.4998 1.05998C13.4998 1.33049 13.6183 1.58992 13.8293 1.78119C14.0402 1.97247 14.3264 2.07993 14.6248 2.07993V2.07993Z" fill="#270641"/>
<path d="M24.4688 14.2275C24.4069 14.0637 24.3001 13.917 24.1584 13.801C24.0167 13.685 23.8447 13.6036 23.6588 13.5645L16.9088 12.1672C16.7255 12.1295 16.5348 12.1341 16.3541 12.1804C16.1733 12.2267 16.0081 12.3133 15.8738 12.4324C15.7163 12.565 15.705 12.5752 14.9738 13.8399C12.5474 12.8262 10.6031 11.0563 9.49501 8.85236C10.9238 8.1996 10.935 8.1996 11.0813 8.04661C11.2126 7.92478 11.3081 7.77508 11.3592 7.61118C11.4103 7.44727 11.4153 7.27437 11.3738 7.10826L9.83251 1.05998C9.78936 0.891383 9.6996 0.73551 9.57167 0.607038C9.44374 0.478567 9.28186 0.381723 9.10126 0.325624C8.83853 0.240549 8.56723 0.179058 8.29126 0.142033C8.00692 0.0822599 7.71676 0.048096 7.42501 0.0400391C6.05251 0.0400391 4.73623 0.534347 3.76572 1.41422C2.79522 2.29409 2.25 3.48746 2.25 4.73179C2.25595 8.89592 4.08317 12.888 7.33096 15.8325C10.5787 18.7769 14.982 20.4335 19.575 20.4389C20.2546 20.4389 20.9276 20.3176 21.5554 20.0818C22.1833 19.846 22.7538 19.5004 23.2343 19.0648C23.7149 18.6291 24.096 18.1119 24.3561 17.5426C24.6162 16.9734 24.75 16.3633 24.75 15.7472C24.7504 15.4876 24.7278 15.2284 24.6825 14.972C24.6353 14.7187 24.5637 14.4696 24.4688 14.2275V14.2275Z" fill="#270641"/>
</svg>
