<svg width="26" height="26" viewBox="0 0 26 26" fill="none" xmlns="http://www.w3.org/2000/svg">
    <path
        d="M21.4479 4.4875C19.1569 2.2375 16.1098 1 12.8638 1C6.17744 1 0.735285 6.334 0.735285 12.892C0.735285 14.9875 1.29542 17.0365 2.35599 18.8365L0.634277 25L7.06661 23.3455C8.84036 24.292 10.836 24.7945 12.8623 24.7945H12.8669C19.5533 24.7945 25 19.4605 25 12.9025C25 9.724 23.7374 6.739 21.4464 4.489L21.4479 4.4875ZM12.8669 22.7875C11.0549 22.7875 9.27959 22.309 7.73081 21.409L7.36198 21.193L3.54512 22.1725L4.56438 18.526L4.32564 18.151C3.31097 16.5805 2.78145 14.7625 2.78145 12.892C2.78145 7.441 7.30535 3.0055 12.873 3.0055C15.565 3.0055 18.1009 4.0375 20.0032 5.902C21.907 7.7725 22.9538 10.252 22.9538 12.895C22.9492 18.3505 18.4253 22.786 12.8669 22.786V22.7875ZM18.3963 15.382C18.0948 15.232 16.6026 14.515 16.3256 14.416C16.0486 14.317 15.8466 14.266 15.6415 14.566C15.441 14.8615 14.8579 15.532 14.6804 15.733C14.5029 15.9295 14.3269 15.958 14.0254 15.808C13.7239 15.658 12.7429 15.3445 11.5859 14.332C10.686 13.5445 10.0754 12.5695 9.89787 12.274C9.72035 11.9785 9.87798 11.815 10.0326 11.6695C10.1718 11.5375 10.334 11.323 10.4871 11.149C10.6401 10.975 10.6876 10.8535 10.7886 10.6525C10.8896 10.456 10.8406 10.282 10.7641 10.132C10.6876 9.982 10.08 8.5195 9.83207 7.924C9.58873 7.342 9.33468 7.423 9.14797 7.4125C8.97044 7.4035 8.76996 7.4035 8.56947 7.4035C8.36899 7.4035 8.03842 7.4785 7.76142 7.774C7.48441 8.0695 6.69931 8.791 6.69931 10.2535C6.69931 11.716 7.78437 13.1275 7.93741 13.3285C8.09046 13.525 10.0754 16.5295 13.1163 17.815C13.8387 18.1195 14.4034 18.3025 14.8426 18.4435C15.5696 18.6685 16.2292 18.6355 16.7511 18.5605C17.3342 18.4765 18.5447 17.8435 18.7988 17.149C19.0528 16.4545 19.0528 15.8605 18.9763 15.7375C18.9044 15.6055 18.7039 15.532 18.3978 15.3805L18.3963 15.382Z"
        fill="#270641" stroke="black" stroke-width="0.5" />
</svg>